<svg width="56" height="58" viewBox="0 0 56 58" fill="none" xmlns="http://www.w3.org/2000/svg">
<path d="M0.65625 29.2686V57.5889H55.3438V0.948242H0.65625V29.2686ZM44.7256 27.0029C46.0355 27.3177 47.2259 28.0273 48.1469 29.042C48.6539 29.5887 49.0946 30.1973 49.4594 30.8545C49.4594 30.927 47.0969 32.5809 45.6575 33.5053C45.605 33.5415 45.395 33.3059 45.1631 32.9479C44.9004 32.4783 44.527 32.0854 44.0779 31.8056C43.6288 31.5259 43.1187 31.3686 42.595 31.3484C40.9369 31.2306 39.8694 32.1323 39.8781 33.614C39.8644 33.9829 39.946 34.3489 40.1144 34.6743C40.4775 35.4582 41.1556 35.925 43.2819 36.8765C47.1975 38.6211 48.8731 39.772 49.9144 41.4078C51.0781 43.2203 51.3363 46.1475 50.5488 48.3134C49.6738 50.6696 47.53 52.2692 44.4981 52.7993C43.1134 52.9636 41.7142 52.9484 40.3331 52.754C38.2163 52.3926 36.2665 51.34 34.7681 49.7498C34.265 49.1743 33.285 47.6745 33.3463 47.5657C33.506 47.4429 33.6741 47.3324 33.8494 47.235L35.875 46.075L37.4456 45.1325L37.7738 45.6354C38.3275 46.4559 39.0322 47.155 39.8475 47.6926C41.5975 48.6442 43.9862 48.5128 45.1675 47.4117C45.5641 47.0082 45.8115 46.4734 45.8667 45.9005C45.9218 45.3275 45.7812 44.7527 45.4694 44.2761C45.0319 43.6462 44.1569 43.1161 41.7113 42.0104C38.8894 40.7507 37.6731 39.9714 36.5619 38.7298C35.8681 37.9105 35.356 36.9439 35.0612 35.8978C34.8414 34.7026 34.8089 33.4786 34.965 32.2728C35.5469 29.4498 37.59 27.4787 40.5737 26.8942C41.9556 26.7171 43.3553 26.7568 44.7256 27.012V27.0029ZM31.8894 29.3773V31.6973H24.7887V52.6453H19.7531V31.6928H12.635V29.4271C12.6128 28.6459 12.6304 27.8639 12.6875 27.0845C12.7225 27.0437 17.0625 27.0437 22.3125 27.0437H31.8631L31.8894 29.3773Z" fill="#FFEBC7"/>
</svg>
