<svg width="1180" height="246" viewBox="0 0 1180 246" fill="none" xmlns="http://www.w3.org/2000/svg">
<g filter="url(#filter0_d_449_6398)">
<path d="M173.569 61.395H106.701V88.7974H165.825V145.836H106.701V234H4.24023V4.05859H173.569V61.395ZM453.698 234H339.323L304.177 148.963V234H201.12V4.05859H335.898C368.066 4.05859 392.341 9.37028 408.723 19.9937C427.686 32.3049 437.167 52.3105 437.167 80.0107C437.167 109.299 424.757 129.107 399.936 139.432L453.698 234ZM335.898 74.5005C335.898 57.4237 326.367 48.8853 307.304 48.8853H304.177V101.307H307.304C326.367 101.307 335.898 92.3716 335.898 74.5005ZM704.638 119.029C704.638 152.289 693.221 180.238 670.385 202.875C646.855 226.107 616.921 237.723 580.583 237.723C544.245 237.723 514.311 226.157 490.781 203.023C467.846 180.387 456.379 152.389 456.379 119.029C456.379 85.7692 467.846 57.8208 490.781 35.1841C514.41 11.9517 544.344 0.335449 580.583 0.335449C616.921 0.335449 646.855 11.9517 670.385 35.1841C693.221 57.8208 704.638 85.7692 704.638 119.029ZM607.092 119.029C607.092 108.207 604.262 99.2718 598.603 92.2227C593.44 85.8685 587.434 82.6914 580.583 82.6914C573.633 82.6914 567.577 85.8685 562.414 92.2227C556.854 99.1725 554.074 108.108 554.074 119.029C554.074 130.05 556.904 138.985 562.563 145.836C567.626 152.19 573.633 155.367 580.583 155.367C587.632 155.367 593.688 152.19 598.752 145.836C604.312 138.985 607.092 130.05 607.092 119.029ZM960.046 234H880.668L834.353 166.537V234H731.296V4.05859H805.759L859.968 78.5215V4.05859H960.046V234ZM1175.99 68.0967H1132.06V234H1028.7V68.0967H984.768V4.05859H1175.99V68.0967Z" fill="#960000"/>
</g>
<defs>
<filter id="filter0_d_449_6398" x="0.240234" y="0.335449" width="1179.75" height="245.388" filterUnits="userSpaceOnUse" color-interpolation-filters="sRGB">
<feFlood flood-opacity="0" result="BackgroundImageFix"/>
<feColorMatrix in="SourceAlpha" type="matrix" values="0 0 0 0 0 0 0 0 0 0 0 0 0 0 0 0 0 0 127 0" result="hardAlpha"/>
<feOffset dy="4"/>
<feGaussianBlur stdDeviation="2"/>
<feComposite in2="hardAlpha" operator="out"/>
<feColorMatrix type="matrix" values="0 0 0 0 0 0 0 0 0 0 0 0 0 0 0 0 0 0 0.25 0"/>
<feBlend mode="normal" in2="BackgroundImageFix" result="effect1_dropShadow_449_6398"/>
<feBlend mode="normal" in="SourceGraphic" in2="effect1_dropShadow_449_6398" result="shape"/>
</filter>
</defs>
</svg>
